<svg xmlns="http://www.w3.org/2000/svg" fill="none" viewBox="0 0 1024 1024" height="1024" width="1024">
  <!-- <rect fill="white" height="1024" width="1024"></rect> -->
  <path fill="#FDFDFD"
    d="M635.344 133.02C641.632 129.401 648.217 125.011 655.869 125.842L654.683 128.007C643.026 151.409 616.065 161.701 603.697 184.718C632.497 198.124 657.5 218.56 676.542 244.008C690.008 268.834 706.469 292.236 716.079 319.019C722.1 334.62 724.74 351.2 728.092 367.484C718.215 370.984 707.775 373.535 698.906 379.229C698.58 380.327 697.927 382.522 697.631 383.649L696.237 383.234C677.996 372.645 654.089 374.365 637.539 387.386C627.395 396.225 631.073 414.406 643.056 419.864C658.657 427.813 681.466 429.326 694.249 415.474C696.919 409.335 698.906 402.928 700.834 396.551C701.694 398.182 703.414 401.415 704.245 403.047L704.69 403.136C710.355 404.174 716.109 404.559 721.833 405.39C716.406 406.902 711.067 408.712 705.728 410.551C708.991 414.199 712.253 417.817 715.723 421.347C711.215 421.199 706.736 421.11 702.228 421.139C706.469 426.775 714.389 425.618 720.499 427.398C706.736 458.6 676.068 476.396 649.374 495.201C683.572 488.26 716.762 467.825 733.727 436.622C736.96 428.821 747.668 431.224 753.125 425.559C765.701 417.461 766.65 401.593 769.586 388.454C775.192 373.505 787.383 357.993 804.912 358.289C805.149 360.543 805.653 364.992 805.92 367.247C812.119 366.713 818.378 366.001 824.636 366.268C823.153 367.929 820.157 371.221 818.674 372.882C820.869 373.92 825.288 375.967 827.483 376.975C821.67 398.004 808.708 416.008 796.31 433.626C771.336 468.477 742.655 502.349 704.571 523.289C702.228 524.594 699.885 525.899 697.571 527.234C695.91 539.929 694.872 552.682 693.389 565.377C687.339 570.686 681.614 577.567 682.979 586.228C672.568 588.987 661.267 591.063 653.2 598.774C642.018 608.473 635.107 624.727 640.861 639.142C644.361 649.256 653.229 656.019 662.216 661.061C659.013 670.226 654.683 680.073 657.856 689.891C659.725 698.374 666.22 704.513 672.331 710.208C662.632 729.25 643.946 742.834 637.776 763.804C631.904 782.253 635.522 801.71 637.895 820.426C639.17 824.697 635.908 827.811 632.793 830.006C630.806 824.548 629.175 818.32 622.768 816.718C623.272 821.879 623.866 827.069 624.637 832.29C616.925 831.756 609.718 829.294 603.015 825.586L602.51 823.866C597.409 807.939 591.951 791.507 581.452 778.249C576.439 771.071 567.215 770.448 559.533 768.045C550.397 763.448 540.402 768.609 530.851 768.757C510.949 770.151 489.09 774.897 470.73 764.575C456.315 758.08 443.353 748.944 429.176 742.093C442.256 761.372 463.908 772.168 481.912 786.02C490.365 795.452 489.179 809.036 487.755 820.692C480.369 814.315 472.776 807.316 462.484 806.752C468.06 812.832 474.823 817.667 480.162 824.014C476.692 826.624 473.37 830.718 468.476 830.124C455.069 828.641 442.82 822.205 431.015 816.036C389.312 793.85 357.457 755.826 338.208 713.085C326.878 688.052 320.53 659.815 325.662 632.439C340.699 630.392 348.53 616.897 354.58 604.558C365.822 609.956 379.732 613.634 391.359 607.168C402.126 602.126 410.104 588.749 404.765 577.182C401.325 566.564 391.033 561.047 383.143 554.106C383.677 536.725 397.35 525.039 404.083 510.179C426.151 514.421 448.841 519.73 471.382 515.844C468.624 514.628 465.688 513.739 462.692 513.383C420.456 507.629 379.02 490.9 347.284 461.952C351.703 453.528 355.381 444.779 358.347 435.762C350.576 437.245 342.42 438.194 335.123 434.16C342.894 431.461 350.932 429.652 358.881 427.605L360.809 427.22C354.017 421.94 345.03 424.254 337.081 423.809C336.577 418.737 336.072 413.695 335.538 408.682C339.928 408.148 344.318 407.674 348.708 407.169C348.886 405.983 349.182 403.61 349.36 402.424C337.971 398.538 325.899 400.674 314.183 400.555C320.174 398.775 326.255 397.292 332.335 395.928C332.958 392.28 333.611 388.691 334.233 385.072C341.263 387.594 348.441 390.115 356.034 390.055C348.411 379.378 334.589 377.242 322.963 373.446C322.34 349.836 327.975 326.968 330.793 303.744C337.11 286.156 346.009 269.309 356.479 253.826C361.402 247.36 366 240.686 370.834 234.131C388.185 215.149 407.079 196.878 429.858 184.54C420.574 171.519 408.77 160.426 395.274 151.854C389.817 148.057 382.995 144.943 380.77 138.121C381.067 135.57 381.63 130.469 381.927 127.918C405.359 137.825 426.21 153.07 444.243 170.896C446.972 173.387 449.315 176.442 452.785 177.985C454.209 178.667 457.027 180.002 458.421 180.654C461.15 189.107 463.611 198.183 470.255 204.501C476.187 210.937 484.581 213.992 492.56 216.988C494.577 226.835 495.971 237.78 503.682 245.046C514.182 256.021 534.025 254.449 543.042 242.347C549.745 235.021 550.071 224.729 550.783 215.416C558.672 208.119 566.799 199.993 569.35 189.167C570.181 185.637 570.803 182.107 571.219 178.518C573.384 178.459 577.655 178.341 579.82 178.281C596.489 161.167 614.938 145.566 635.344 133.02ZM382.313 336.163C389.164 336.548 396.194 335.481 401.533 330.854C402.689 333.731 403.935 336.608 405.21 339.485C406.693 333.82 411.469 331.061 416.837 330.557C415.502 337.586 414.82 344.972 411.261 351.319C403.668 354.433 404.943 343.489 403.846 339.336C402.63 339.425 400.227 339.633 399.011 339.752C399.338 355.353 404.054 372.23 417.757 381.335C435.167 394.326 464.145 388.572 471.649 367.039C483.009 343.341 464.234 313.651 438.43 312.286C416.6 309.706 399.041 324.595 382.313 336.163ZM572.287 356.777C576.142 351.764 579.702 346.544 583.646 341.62C584.18 352.357 584.922 363.984 592.248 372.556C601.087 384.954 619.773 387.534 632.26 379.348C642.492 372.882 647.742 360.543 648.039 348.768C648.484 340.108 643.234 332.811 639.882 325.248C647.06 328.896 653.911 333.286 661.208 336.756C659.221 332.396 656.166 328.688 652.992 325.159C658.331 324.951 661.356 320.888 663.937 316.943C659.072 318.248 654.356 320.383 649.314 320.888C638.844 316.913 628.315 311.367 616.718 312.464C593.405 312.642 572.702 333.582 572.287 356.777ZM509.525 383.797C514.864 391.598 522.635 396.996 529.605 403.165C532.571 419.567 512.788 434.16 498.017 426.033C490.217 422.949 489.09 414.08 484.878 407.881C479.598 421.495 493.746 434.427 506.797 433.834C517.118 434.546 526.046 428.436 532.868 421.377C542.834 433.686 563.507 438.935 575.282 426.241C578.604 422.355 585.604 414.94 579.909 410.432C576.795 415.029 574.274 420.339 569.706 423.749C558.821 431.995 539.453 424.906 537.999 410.906C535.715 397.945 551.079 393.585 556.27 383.738C552.355 380.594 547.609 379.14 542.626 379.437C531.533 379.437 519.462 377.687 509.525 383.797ZM374.156 385.666C356.657 390.738 355.559 419.805 372.436 426.804C389.194 434.16 413.041 434.219 424.994 418.322C432.468 409.216 425.943 396.076 416.719 391.182C403.905 384.272 388.274 381.424 374.156 385.666Z">
  </path>
  <path fill="#FDFDFD"
    d="M596.697 900.983C602.421 898.254 603.637 907.656 598.269 908.487C592.752 910.355 591.15 901.902 596.697 900.983Z">
  </path>
  <path fill="#F8F9FA"
    d="M214.376 429.504C221.139 426.893 220.783 436.741 215.355 437.897C209.126 440.626 209.156 430.245 214.376 429.504Z">
  </path>
  <path fill="#F8F9FA"
    d="M421.138 897.809C426.091 897.423 430.511 898.758 432.409 903.83C426.566 909.673 419.447 905.58 421.138 897.809Z">
  </path>
  <path fill="#FCFDFD"
    d="M248.96 515.222C259.43 511.099 270.167 507.658 280.904 504.277C283.07 528.628 280.726 553.394 286.006 577.508C290.366 597.38 296.001 617.431 306.827 634.871C310.98 640.447 309.378 647.684 309.971 654.15C310.149 674.467 315.073 694.429 322.577 713.233C319.314 711.78 316.052 710.356 312.789 708.962C311.632 703.683 309.942 698.462 306.59 694.191C297.989 682.772 290.692 670.434 282.12 659.014C277.879 663.76 273.638 668.506 269.367 673.281C253.617 646.972 246.38 616.363 244.274 586.021C243.384 562.945 245.46 539.899 244.897 516.823C245.905 516.408 247.952 515.607 248.96 515.222Z">
  </path>
  <path fill="#FDFCFD"
    d="M738.354 423.66C740.104 417.432 739.926 409.987 743.693 404.648C746.155 404.974 751.078 405.627 753.54 405.923C749.536 412.656 744.968 419.211 738.354 423.66Z">
  </path>
  <path fill="#FDFCFD"
    d="M421.227 885.678C427.218 885.115 431.489 886.449 429.176 893.241C427.396 893.212 423.807 893.182 422.027 893.152C421.82 891.284 421.405 887.547 421.227 885.678Z">
  </path>
  <path fill="#FCFCFC"
    d="M492.916 782.372C511.394 783.528 529.783 781.511 548.113 779.554C559.295 798.18 574.007 814.316 589.519 829.353C557.634 826.654 525.542 830.866 493.657 827.9C500.953 813.515 499.441 796.697 492.916 782.372Z">
  </path>
  <path fill="#311922"
    d="M224.046 250.029C226.893 245.165 226.122 237.009 232.766 235.585C235.702 245.729 239.914 256.169 248.693 262.694C257.176 270.08 270.078 269.279 277.968 277.495C268.833 281.202 258.629 282.507 250.206 287.905C239.973 295.202 237.66 308.252 232.973 319.078C223.868 310.833 224.787 295.914 214.465 288.41C206.427 281.558 194.267 282.122 187 274.469C200.97 269.724 218.084 265.245 224.046 250.029ZM199.339 276.071C215.652 277.317 226.923 290.397 231.105 305.346C234.634 299.621 237.6 293.6 241.634 288.232C248.011 280.55 258.303 278.562 267.439 276.219C251.333 272.779 236.889 263.08 230.63 247.33C226.418 262.131 213.338 271.533 199.339 276.071Z">
  </path>
  <path fill="#311922"
    d="M416.778 881.259C422.176 881.348 427.752 880.636 432.972 882.327C436.383 886.568 434.781 891.61 432.438 895.94L435.197 898.076L433.387 899.5C435.167 900.33 438.697 902.021 440.476 902.851C437.51 891.017 453.616 885.174 460.586 893.33C462.603 898.906 463.137 907.182 456.671 910.029C450.946 913.351 440.536 909.851 441.841 902.05C435.019 908.694 426.566 912.639 416.896 910.593C416.807 900.805 416.748 891.046 416.778 881.259ZM421.227 885.678C421.405 887.547 421.82 891.284 422.028 893.152C423.807 893.182 427.396 893.212 429.176 893.241C431.489 886.449 427.218 885.115 421.227 885.678ZM447.179 894.22C443.561 898.877 445.519 905.402 450.887 907.716C461.268 906.322 457.027 886.627 447.179 894.22ZM421.138 897.809C419.447 905.58 426.566 909.673 432.409 903.83C430.51 898.758 426.091 897.423 421.138 897.809Z">
  </path>
  <path fill="#311922"
    d="M555.38 894.517C556.893 883.543 569.024 879.805 578.545 882.06C578.989 883.276 579.879 885.737 580.294 886.954C572.286 884.759 560.096 886.598 560.63 897.216C560.363 908.398 573.354 908.784 581.303 906.44C573.057 918.631 551.198 909.021 555.38 894.517Z">
  </path>
  <path fill="#311922"
    d="M522.961 907.894C516.525 901.784 521.894 889.771 530.466 889.445C535.093 888.14 536.724 893.152 538.711 896.089C535.775 895.051 532.809 894.012 529.902 892.945C526.521 896.296 523.584 901.546 527.233 905.936C530.614 908.605 534.292 905.817 537.792 905.283C537.614 906.559 537.258 909.11 537.08 910.415C532.275 911.512 526.313 912.639 522.961 907.894Z">
  </path>
  <path fill="#311922"
    d="M588.155 894.339C591.328 885.678 607.078 887.725 606.396 897.305C605.98 901.724 607.938 908.012 603.163 910.682C598.091 912.847 588.896 912.817 587.799 905.995C587.205 898.462 597.142 898.521 601.887 896.652C598.862 891.047 593.019 893.775 588.155 894.339ZM596.697 900.983C591.15 901.902 592.752 910.355 598.269 908.487C603.637 907.656 602.421 898.254 596.697 900.983Z">
  </path>
  <path fill="#371B26"
    d="M641.098 115.016C648.543 111.813 658.805 109.588 664.678 116.796C675.059 129.105 679.449 145.121 684.105 160.218C691.936 186.734 693.122 214.496 693.953 241.932C693.092 253.055 701.605 261.389 706.766 270.347C725.778 298.168 739.867 329.726 743.723 363.45C749.091 363.628 760.095 358.26 761.103 366.742C757.07 371.281 750.099 370.569 744.612 372.289C744.79 380.831 744.642 389.403 744.286 397.945C746.689 398.538 751.523 399.725 753.926 400.288C757.129 382.848 766.561 366.298 781.688 356.599C790.942 350.963 803.873 347.315 812.89 355.412C818.14 355.383 824.191 354.76 828.254 358.823C837.834 366.149 837.923 379.852 834.602 390.411C829.263 408.445 818.941 424.521 808.589 440.063C784.772 475.002 756.18 507.925 719.579 529.933C724.592 581.156 724.681 634.93 705.757 683.573C694.991 709.585 678.559 733.106 659.25 753.512C652.577 760.334 647.772 769.054 646.437 778.575C643.204 794.621 648.721 810.667 647.475 826.802C643.352 842.374 624.607 843.294 611.438 841.959C603.4 839.23 595.688 835.256 589.519 829.353C574.007 814.315 559.295 798.18 548.113 779.554C529.783 781.511 511.394 783.528 492.916 782.371C499.441 796.697 500.953 813.515 493.657 827.9C479.984 843.116 457.916 840.328 440.773 833.476C393.583 812.536 355.411 774.956 330.17 730.258C302.615 723.674 276.247 708.043 260.557 683.959C244.096 659.37 235.91 630.155 232.35 600.999C226.893 564.576 233.952 527.293 226.418 491.078C223.986 479.066 218.38 467.765 210.224 458.63C205.36 452.579 198.597 446.291 199.694 437.779C200.673 425.885 211.559 417.847 221.94 413.991C235.999 408.771 253.646 407.377 265.837 417.61C270.434 404.263 286.836 406.398 297.988 403.61C296.832 394.178 296.15 384.717 295.705 375.255C288.497 372.526 273.875 375.225 273.608 364.637C281.379 364.874 289.15 365.615 296.891 366.594C301.904 331.358 315.251 297.782 333.343 267.292C336.636 261.271 341.381 255.25 340.343 247.953C338.119 207.556 342.093 165.527 360.957 129.134C364.694 122.253 370.241 113.919 379.228 114.66C394.918 114.601 408.354 123.973 421.494 131.418C437.036 141.147 450.828 153.545 462.899 167.307C497.691 159.714 533.906 157.667 568.816 165.854C590.26 145.536 613.811 126.732 641.098 115.016ZM635.344 133.02C614.938 145.566 596.489 161.167 579.82 178.281C577.655 178.341 573.384 178.459 571.219 178.519C570.803 182.107 570.18 185.637 569.35 189.167C569.172 184.302 568.579 179.468 568.075 174.663C559.325 173.654 550.545 173.12 541.736 173.209C543.99 186.082 546.245 199.103 545.177 212.242C537.258 214.111 527.737 216.068 521.182 209.751C513.262 200.022 513.114 186.734 507.953 175.701C503.356 170.154 495.318 174.188 489.267 174.069C488.793 184.925 489.416 195.811 488.318 206.666C484.195 196.463 483.424 185.429 481.407 174.752C471.857 175.701 462.306 176.858 452.785 177.985C449.315 176.442 446.972 173.387 444.243 170.896C426.21 153.07 405.359 137.825 381.927 127.918C372.673 127.533 371.813 138.388 368.52 144.676C355.826 179.408 352.919 217.225 356.478 253.826C346.008 269.309 337.11 286.156 330.793 303.744C322.339 320.383 318.098 338.832 315.102 357.133C314.954 361.73 312.819 366.861 314.806 371.281C316.852 371.814 320.916 372.912 322.962 373.446C334.589 377.242 348.411 379.378 356.034 390.055C348.441 390.115 341.263 387.594 334.233 385.073C327.233 382.551 320.115 380.386 312.997 378.191C313.293 385.636 313.768 393.081 314.183 400.555C325.899 400.674 337.97 398.538 349.36 402.424C340.343 409.602 327.797 407.347 317.119 409.424C318.988 415.949 321.064 422.415 323.17 428.881C334.797 426.953 347.669 421.555 358.881 427.605C350.932 429.652 342.894 431.461 335.123 434.16C333.106 434.279 329.043 434.546 327.026 434.694C332.365 444.749 339.187 453.944 347.284 461.952C379.02 490.9 420.456 507.629 462.692 513.383C465.687 513.739 468.624 514.628 471.382 515.844C448.84 519.73 426.15 514.421 404.083 510.179L404.409 509.527C397.617 507.896 391.003 503.921 384.033 504.01C379.732 510.476 375.906 517.298 371.457 523.675L372.406 526.255C357.991 545.09 349.034 567.305 338.653 588.453C333.818 602.957 327.204 617.045 325.661 632.439C320.53 659.815 326.878 688.052 338.208 713.085C357.457 755.826 389.312 793.85 431.015 816.036C442.819 822.205 455.069 828.641 468.475 830.124C473.369 830.718 476.691 826.625 480.162 824.014C474.823 817.667 468.06 812.832 462.484 806.752C472.776 807.316 480.369 814.315 487.755 820.692C489.178 809.036 490.365 795.452 481.912 786.02C463.908 772.168 442.256 761.372 429.176 742.093C443.353 748.944 456.315 758.08 470.73 764.575C489.089 774.897 510.949 770.151 530.851 768.757C540.402 768.609 550.397 763.448 559.532 768.046C568.223 790.083 584.744 808.561 602.51 823.866L603.014 825.586C609.718 829.294 616.925 831.756 624.637 832.29C623.865 827.07 623.272 821.879 622.768 816.718C629.175 818.32 630.806 824.548 632.793 830.006C635.908 827.811 639.17 824.697 637.895 820.426C635.522 801.71 631.903 782.253 637.776 763.804C643.945 742.834 662.631 729.25 672.33 710.208C684.55 695.645 687.427 676.039 695.05 659.074C700.33 637.066 702.435 614.494 705.52 592.131C706.677 584.419 706.232 576.648 704.393 569.144C705.342 568.373 707.24 566.831 708.19 566.059L706.499 565.97C706.529 551.733 706.795 537.408 704.571 523.289C742.655 502.349 771.336 468.477 796.31 433.626C808.708 416.008 821.67 398.004 827.483 376.975C825.288 375.967 820.869 373.92 818.674 372.882C820.157 371.221 823.153 367.929 824.636 366.268C818.377 366.001 812.119 366.713 805.92 367.247C805.653 364.992 805.149 360.543 804.912 358.289C787.382 357.993 775.192 373.505 769.586 388.454C766.65 401.593 765.701 417.461 753.125 425.559C747.667 431.224 736.96 428.821 733.727 436.622C716.761 467.825 683.572 488.26 649.373 495.201C676.068 476.396 706.736 458.6 720.499 427.398C714.389 425.618 706.469 426.775 702.228 421.139C706.736 421.11 711.215 421.199 715.723 421.347C725.6 425.381 724.147 409.69 727.291 404.174C725.926 404.47 723.198 405.093 721.833 405.39C716.109 404.559 710.355 404.174 704.69 403.136C705.075 401.623 705.817 398.598 706.202 397.055C713.617 396.788 721.062 396.64 728.507 396.521C728.418 389.521 728.536 382.522 728.714 375.581C718.422 378.399 708.456 383.649 697.63 383.649C697.927 382.522 698.58 380.327 698.906 379.229C707.774 373.535 718.215 370.984 728.092 367.484C724.74 351.201 722.1 334.62 716.079 319.019C706.469 292.236 690.008 268.834 676.542 244.008C678.411 204.738 675.86 162.265 654.682 128.007L655.869 125.842C648.217 125.012 641.632 129.401 635.344 133.02ZM738.354 423.66C744.968 419.211 749.536 412.657 753.54 405.924C751.078 405.627 746.155 404.975 743.693 404.648C739.926 409.987 740.104 417.432 738.354 423.66ZM274.913 416.957C273.756 419.122 272.599 421.288 271.413 423.483C276.663 429.415 281.112 435.969 285.62 442.495C291.908 439.202 298.374 436.325 304.959 433.686C303.12 426.627 301.132 419.597 299.382 412.538C291.196 413.813 282.98 415.148 274.913 416.957ZM230.096 424.847C237.6 438.313 246.202 451.719 247.981 467.409C251.985 483.189 248.634 499.235 248.96 515.222C247.952 515.607 245.905 516.408 244.897 516.823C245.46 539.899 243.384 562.945 244.274 586.021C246.38 616.363 253.617 646.972 269.366 673.281C279.747 689.298 294.874 702.141 312.789 708.962C316.052 710.356 319.314 711.78 322.577 713.233C315.073 694.429 310.149 674.467 309.971 654.15C309.378 647.684 310.98 640.447 306.827 634.871C296.001 617.431 290.366 597.381 286.006 577.508C280.726 553.394 283.069 528.628 280.904 504.277C280.756 496.803 280.548 489.328 278.887 482.032C274.972 463.227 271.62 442.91 257.858 428.436C251.333 419.983 238.994 421.436 230.096 424.847ZM214.376 429.504C209.156 430.245 209.126 440.626 215.355 437.897C220.783 436.741 221.139 426.893 214.376 429.504ZM288.023 448.812C297.751 479.807 296.654 512.671 297.01 544.793C297.158 569.203 303.149 593.317 312.819 615.621C316.437 608.028 318.424 599.842 321.183 591.923C333.017 558.229 350.161 526.611 369.648 496.773C345.297 484.494 323.852 465.867 310.861 441.635C303.149 443.711 295.527 446.113 288.023 448.812Z">
  </path>
  <path fill="#E1B7C6"
    d="M368.521 144.676C371.813 138.388 372.673 127.533 381.927 127.918C381.631 130.469 381.067 135.571 380.77 138.121C372.377 169.294 366.474 201.802 370.834 234.132C366 240.686 361.402 247.36 356.479 253.826C352.919 217.225 355.826 179.408 368.521 144.676Z">
  </path>
  <path fill="#FACAD8"
    d="M654.683 128.007C675.86 162.265 678.411 204.738 676.542 244.008C657.5 218.56 632.497 198.124 603.697 184.717C616.065 161.701 643.026 151.409 654.683 128.007Z">
  </path>
  <path fill="#FDCADA"
    d="M370.834 234.131C366.474 201.802 372.376 169.294 380.77 138.121C382.995 144.943 389.816 148.057 395.274 151.854C408.769 160.426 420.574 171.519 429.858 184.54C407.079 196.878 388.185 215.149 370.834 234.131Z">
  </path>
  <path fill="#4A2E3F"
    d="M452.785 177.985C462.306 176.858 471.857 175.701 481.408 174.752C483.424 185.429 484.196 196.463 488.318 206.666C489.416 195.81 488.793 184.925 489.267 174.069C495.318 174.188 503.356 170.154 507.953 175.701C513.114 186.734 513.263 200.022 521.182 209.751C527.737 216.068 537.258 214.111 545.177 212.242C546.245 199.103 543.991 186.082 541.736 173.209C550.546 173.12 559.325 173.654 568.075 174.663C568.579 179.468 569.172 184.302 569.35 189.167C566.799 199.993 558.672 208.119 550.783 215.416C550.071 224.729 549.745 235.021 543.042 242.347C534.025 254.449 514.182 256.021 503.682 245.046C495.971 237.78 494.577 226.835 492.56 216.988C484.581 213.992 476.187 210.937 470.255 204.501C463.611 198.183 461.15 189.107 458.421 180.654C457.027 180.001 454.209 178.667 452.785 177.985Z">
  </path>
  <path fill="#43231A"
    d="M789.607 242.792C793.76 248.991 796.4 256.169 801.056 262.071C807.196 269.279 817.696 269.753 824.458 276.101C817.251 279.067 808.886 280.194 803.103 285.829C796.281 291.999 794.442 301.431 790.438 309.32C787.709 302.202 785.87 294.312 780.324 288.706C773.205 280.757 761.905 279.69 753.185 274.232C762.32 269.783 773.176 268.063 780.798 260.915C784.802 255.457 786.671 248.813 789.607 242.792ZM767.273 273.817C776.527 278.325 786.078 283.516 790.023 293.719C795.569 284.939 803.192 277.613 813.425 274.707C803.607 271.118 794.561 265.156 790.467 255.161C785.929 264.652 777.565 271.444 767.273 273.817Z">
  </path>
  <path fill="#EDB761"
    d="M199.339 276.071C213.338 271.533 226.418 262.131 230.63 247.33C236.888 263.08 251.333 272.779 267.439 276.219C258.303 278.563 248.011 280.55 241.634 288.232C237.6 293.6 234.634 299.621 231.105 305.346C226.923 290.397 215.652 277.317 199.339 276.071Z">
  </path>
  <path fill="#E0A751"
    d="M767.273 273.817C777.565 271.444 785.929 264.652 790.467 255.161C794.56 265.156 803.607 271.118 813.424 274.707C803.191 277.613 795.569 284.94 790.022 293.719C786.078 283.516 776.527 278.325 767.273 273.817Z">
  </path>
  <path fill="#CDC8D1"
    d="M315.102 357.133C318.098 338.832 322.339 320.383 330.793 303.744C327.975 326.968 322.339 349.836 322.962 373.446C320.916 372.912 316.852 371.814 314.806 371.281C312.819 366.861 314.954 361.73 315.102 357.133Z">
  </path>
  <path fill="#3B1E2D"
    d="M382.313 336.163C399.041 324.595 416.6 309.706 438.43 312.286C464.234 313.651 483.009 343.341 471.649 367.039C464.145 388.573 435.167 394.327 417.757 381.335C404.054 372.23 399.338 355.353 399.011 339.752C400.228 339.633 402.63 339.425 403.846 339.336C404.944 343.489 403.668 354.434 411.261 351.319C414.82 344.972 415.503 337.586 416.837 330.557C411.469 331.061 406.693 333.82 405.21 339.485C403.935 336.608 402.689 333.731 401.533 330.854C396.194 335.481 389.164 336.548 382.313 336.163Z">
  </path>
  <path fill="#3D1F2A"
    d="M572.286 356.777C572.702 333.582 593.404 312.642 616.717 312.464C628.315 311.367 638.844 316.913 649.314 320.888C654.356 320.383 659.072 318.248 663.937 316.943C661.356 320.888 658.331 324.951 652.992 325.159C656.166 328.688 659.221 332.396 661.208 336.756C653.911 333.286 647.06 328.896 639.882 325.248C643.234 332.811 648.484 340.108 648.039 348.768C647.742 360.544 642.492 372.882 632.259 379.348C619.772 387.534 601.086 384.954 592.248 372.556C584.922 363.984 584.18 352.357 583.646 341.62C579.701 346.544 576.142 351.764 572.286 356.777ZM593.049 351.023C600.582 349.332 597.023 339.425 597.646 333.879C591.773 337.527 589.578 344.883 593.049 351.023Z">
  </path>
  <path fill="#FCFCFD"
    d="M593.049 351.022C589.578 344.883 591.773 337.527 597.646 333.879C597.023 339.425 600.582 349.332 593.049 351.022Z">
  </path>
  <path fill="#FCFCFD"
    d="M288.023 448.812C295.527 446.113 303.149 443.711 310.861 441.635C323.852 465.867 345.297 484.494 369.648 496.773C350.161 526.611 333.017 558.229 321.183 591.923C318.424 599.842 316.437 608.029 312.819 615.622C303.149 593.317 297.158 569.203 297.01 544.793C296.654 512.671 297.751 479.807 288.023 448.812Z">
  </path>
  <path fill="#FCFCFD"
    d="M447.179 894.22C457.027 886.627 461.268 906.322 450.887 907.716C445.518 905.402 443.561 898.877 447.179 894.22Z">
  </path>
  <path fill="#F7CBD9"
    d="M637.539 387.386C654.089 374.365 677.996 372.645 696.237 383.234C695.792 394.06 690.423 404.708 694.249 415.474C681.466 429.326 658.657 427.813 643.056 419.864C631.073 414.407 627.395 396.225 637.539 387.386ZM662.009 391.45C656.373 397.856 676.661 402.157 675.652 393.466C671.678 390.678 666.636 389.729 662.009 391.45Z">
  </path>
  <path fill="#E5DEE1"
    d="M697.631 383.649C708.457 383.649 718.423 378.399 728.715 375.581C728.537 382.522 728.418 389.521 728.507 396.521C721.062 396.64 713.618 396.788 706.203 397.055C705.817 398.598 705.075 401.623 704.69 403.136L704.245 403.047C703.415 401.415 701.694 398.182 700.834 396.551C698.906 402.928 696.919 409.335 694.249 415.474C690.423 404.708 695.792 394.06 696.237 383.234L697.631 383.649Z">
  </path>
  <path fill="#C8C4CE"
    d="M312.996 378.191C320.115 380.386 327.233 382.551 334.233 385.072C333.61 388.691 332.958 392.28 332.335 395.928C326.254 397.293 320.174 398.776 314.183 400.555C313.768 393.081 313.293 385.636 312.996 378.191Z">
  </path>
  <path fill="#371420"
    d="M509.525 383.797C519.461 377.687 531.533 379.437 542.626 379.437C547.609 379.14 552.354 380.594 556.27 383.738C551.079 393.585 535.715 397.945 537.999 410.907C539.452 424.906 558.82 431.995 569.706 423.749C574.273 420.339 576.795 415.029 579.909 410.432C585.604 414.94 578.604 422.355 575.282 426.241C563.507 438.936 542.834 433.686 532.868 421.377C526.046 428.436 517.118 434.546 506.796 433.834C493.746 434.427 479.598 421.495 484.877 407.881C489.089 414.08 490.216 422.949 498.017 426.033C512.788 434.16 532.571 419.567 529.605 403.165C522.635 396.996 514.864 391.598 509.525 383.797ZM516.673 384.954C518.334 389.64 523.169 391.034 527.736 391.005C535.063 391.064 544.139 391.805 548.973 385.102C538.296 383.145 527.41 383.619 516.673 384.954Z">
  </path>
  <path fill="#F8CDD9"
    d="M374.156 385.666C388.274 381.424 403.905 384.272 416.718 391.182C425.943 396.076 432.468 409.216 424.994 418.322C413.04 434.219 389.194 434.16 372.436 426.804C355.559 419.805 356.656 390.738 374.156 385.666ZM382.431 399.725C383.202 400.941 384.745 403.373 385.516 404.589C393.05 406.191 400.702 407.852 408.473 407.644C408.71 406.25 409.214 403.491 409.452 402.097C400.998 398.182 391.448 399.665 382.431 399.725Z">
  </path>
  <path fill="#7C5769"
    d="M516.673 384.954C527.41 383.619 538.296 383.145 548.973 385.102C544.139 391.805 535.063 391.064 527.737 391.005C523.169 391.034 518.334 389.64 516.673 384.954Z">
  </path>
  <path fill="#F7EBED"
    d="M662.009 391.449C666.636 389.729 671.678 390.678 675.652 393.466C676.661 402.157 656.373 397.856 662.009 391.449Z">
  </path>
  <path fill="#F8EAEE"
    d="M382.431 399.725C391.448 399.665 400.998 398.182 409.452 402.097C409.214 403.491 408.71 406.25 408.473 407.644C400.702 407.851 393.05 406.191 385.516 404.589C384.745 403.373 383.202 400.941 382.431 399.725Z">
  </path>
  <path fill="#C0B7C2"
    d="M349.36 402.424C349.182 403.61 348.886 405.983 348.708 407.169C344.318 407.674 339.928 408.148 335.539 408.682C336.073 413.695 336.577 418.737 337.081 423.809C345.03 424.254 354.017 421.94 360.809 427.22L358.881 427.605C347.67 421.555 334.797 426.953 323.17 428.881C321.064 422.415 318.988 415.949 317.12 409.423C327.797 407.347 340.344 409.601 349.36 402.424Z">
  </path>
  <path fill="#DED5D9"
    d="M721.834 405.39C723.198 405.093 725.927 404.47 727.291 404.174C724.147 409.691 725.6 425.381 715.724 421.347C712.253 417.817 708.991 414.199 705.728 410.551C711.067 408.712 716.406 406.902 721.834 405.39Z">
  </path>
  <path fill="#FAFBFA"
    d="M274.913 416.957C282.98 415.148 291.196 413.813 299.382 412.538C301.132 419.597 303.12 426.627 304.959 433.686C298.374 436.325 291.908 439.202 285.62 442.495C281.112 435.969 276.663 429.415 271.413 423.483C272.599 421.288 273.756 419.122 274.913 416.957Z">
  </path>
  <path fill="#4D303F"
    d="M230.096 424.847C238.994 421.436 251.333 419.982 257.858 428.436C271.621 442.91 274.972 463.227 278.887 482.032C280.548 489.328 280.756 496.803 280.904 504.277C270.167 507.658 259.43 511.099 248.96 515.222C248.634 499.235 251.985 483.188 247.981 467.409C246.202 451.719 237.6 438.313 230.096 424.847Z">
  </path>
  <path fill="#E7E4EA"
    d="M327.026 434.694C329.043 434.546 333.106 434.279 335.123 434.16C342.419 438.194 350.576 437.245 358.347 435.762C355.381 444.779 351.703 453.528 347.284 461.952C339.186 453.944 332.364 444.749 327.026 434.694Z">
  </path>
  <path fill="#D8CDD8"
    d="M384.033 504.01C391.003 503.921 397.617 507.895 404.409 509.527L404.083 510.179C397.35 525.039 383.677 536.725 383.143 554.106C379.287 544.941 375.965 535.539 372.406 526.255L371.457 523.675C375.906 517.298 379.732 510.476 384.033 504.01Z">
  </path>
  <path fill="#DCDBE0"
    d="M697.571 527.234C699.885 525.899 702.228 524.594 704.571 523.289C706.796 537.408 706.529 551.733 706.499 565.97C702.109 565.792 697.749 565.585 693.389 565.377C694.872 552.683 695.91 539.929 697.571 527.234Z">
  </path>
  <path fill="#452635"
    d="M338.653 588.453C349.034 567.305 357.991 545.09 372.406 526.255C375.965 535.539 379.287 544.941 383.143 554.106C391.033 561.047 401.325 566.564 404.766 577.182C410.104 588.749 402.126 602.126 391.359 607.168C379.732 613.634 365.822 609.956 354.58 604.558C349.034 599.397 343.873 593.881 338.653 588.453Z">
  </path>
  <path fill="#3F2131"
    d="M682.978 586.228C681.614 577.567 687.339 570.686 693.389 565.377C697.749 565.585 702.109 565.792 706.499 565.97L708.19 566.059C707.241 566.83 705.342 568.373 704.393 569.144C706.232 576.648 706.677 584.419 705.52 592.131C702.436 614.494 700.33 637.066 695.05 659.074C688.792 658.214 682.504 657.353 676.246 656.523C681.08 633.507 687.427 609.808 682.978 586.228Z">
  </path>
  <path fill="#4C2C3B"
    d="M682.979 586.228C687.428 609.808 681.08 633.507 676.246 656.523C682.504 657.354 688.792 658.214 695.05 659.074C687.428 676.039 684.551 695.645 672.331 710.208C666.221 704.513 659.725 698.374 657.856 689.891C654.683 680.073 659.013 670.226 662.216 661.061C653.229 656.019 644.361 649.256 640.861 639.142C635.107 624.727 642.018 608.473 653.2 598.774C661.267 591.063 672.568 588.987 682.979 586.228Z">
  </path>
  <path fill="#573D4D"
    d="M338.653 588.453C343.873 593.881 349.034 599.397 354.58 604.558C348.529 616.897 340.699 630.392 325.661 632.439C327.204 617.045 333.818 602.957 338.653 588.453Z">
  </path>
  <path fill="#34141C"
    d="M749.299 597.203L753.006 595.779L756.091 597.499C760.303 613.1 760.926 629.502 758.968 645.489C756.655 665.362 753.481 685.353 746.333 704.157C745.176 708.488 741.706 711.157 737.316 712.017C736.041 702.2 741.558 693.391 743.367 684.018C749.892 655.663 753.778 626.151 749.299 597.203Z">
  </path>
  <path fill="#351019"
    d="M203.58 648.396C203.61 643.324 198.093 633.269 207.673 633.625C216.601 679.243 240.359 724.979 282.091 748.351C285.828 751.109 294.4 752.593 291.286 759.207C286.629 760.69 282.506 757.398 278.502 755.648C238.876 733.699 212.182 692.382 203.58 648.396Z">
  </path>
  <path fill="#EDEEF2"
    d="M269.366 673.281C273.638 668.506 277.879 663.76 282.12 659.014C290.692 670.434 297.989 682.772 306.59 694.191C309.942 698.462 311.632 703.683 312.789 708.962C294.874 702.14 279.748 689.298 269.366 673.281Z">
  </path>
  <path fill="#E7E6ED"
    d="M559.532 768.045C567.214 770.448 576.439 771.071 581.451 778.249C591.951 791.507 597.408 807.938 602.51 823.866C584.743 808.561 568.223 790.083 559.532 768.045Z">
  </path>
  <path fill="#C7BBCD"
    d="M440.773 833.476C457.917 840.327 479.984 843.115 493.657 827.9C525.542 830.866 557.634 826.654 589.519 829.353C595.689 835.255 603.4 839.23 611.438 841.959C614.997 844.865 618.616 847.713 622.442 850.264C586.909 851.598 551.347 850.293 515.814 850.353C473.132 847.861 429.354 849.255 388.008 837.035C405.537 834.959 423.807 839.23 440.773 833.476Z">
  </path>
  <path fill="#D8D6E1"
    d="M647.475 826.802C647.92 827.751 648.78 829.679 649.225 830.628C655.187 832.2 661.149 833.891 667.051 835.79C665.687 838.933 664.767 842.878 660.733 843.56C648.484 847.832 635.433 850.234 622.442 850.264C618.616 847.713 614.997 844.865 611.438 841.959C624.607 843.293 643.352 842.374 647.475 826.802Z">
  </path>
  <path fill="#341D1D"
    d="M614.285 888.377C615.324 885.915 616.362 883.454 617.429 881.021C617.578 888.17 624.311 888.614 627.692 892.826C625.734 893.33 621.878 894.339 619.951 894.873C619.891 898.788 619.832 902.733 619.773 906.677C622.056 907.063 626.654 907.775 628.938 908.131C626.179 909.673 623.006 913.44 619.595 910.949C610.459 908.576 619.298 895.021 610.074 892.53C611.141 891.492 613.247 889.415 614.285 888.377Z">
  </path>
  <path fill="#412E3A"
    d="M467.526 890.72C468.92 890.513 471.679 890.068 473.043 889.83C473.162 895.347 473.221 900.834 473.34 906.411C475.475 905.758 479.717 904.483 481.852 903.86C482.356 899.262 482.386 894.724 482.475 890.186C484.818 890.364 487.161 890.602 489.534 890.839C489.475 897.779 489.416 904.75 489.386 911.749C484.314 912.461 483.009 908.724 482.979 904.156C479.746 907.033 477.462 912.995 472.153 911.364C465.035 906.915 468.179 897.631 467.526 890.72Z">
  </path>
  <path fill="#352021"
    d="M495.467 891.491C499.679 889.415 505.522 890.038 510.238 890.631C516.733 895.347 513.026 904.66 514.153 911.453C505.937 910.948 509.911 900.271 508.666 894.932C498.551 892.174 502.111 905.165 501.34 911.067C500.361 910.86 498.403 910.474 497.424 910.296C497.306 903.978 496.475 897.69 495.467 891.491Z">
  </path>
</svg>